<svg width="42" height="42" viewBox="0 0 42 42" fill="none" xmlns="http://www.w3.org/2000/svg">
<path d="M5.37742 11.4537C5.64075 10.0317 6.88109 9 8.32727 9H33.6727C35.1189 9 36.3592 10.0317 36.6226 11.4537L40.1411 30.4537C40.4826 32.2981 39.0669 34 37.1912 34H35.7161C34.0278 34 32.4492 32.4731 31.6019 30.5015C30.9899 29.0776 29.9584 27.5602 28.2345 26.4041C26.5089 25.2468 24.1616 24.5 21 24.5C17.8384 24.5 15.4911 25.2468 13.7655 26.4041C12.0416 27.5602 11.0101 29.0776 10.3981 30.5015C9.55079 32.4731 7.97217 34 6.28394 34H4.80875C2.93307 34 1.51736 32.2981 1.8589 30.4537L5.37742 11.4537Z" stroke="#0C0E00" stroke-width="2"/>
<circle cx="30.5" cy="14" r="1" fill="#0C0E00"/>
<circle cx="30.5" cy="20" r="1" fill="#0C0E00"/>
<circle cx="33.5" cy="17" r="1" fill="#0C0E00"/>
<circle cx="27.5" cy="17" r="1" fill="#0C0E00"/>
<circle cx="11.5" cy="17" r="2" fill="#0C0E00"/>
</svg>
